<svg id="Layer_1" data-name="Layer 1" xmlns="http://www.w3.org/2000/svg" viewBox="0 0 1000 340"><defs><style>.cls-1{fill:#389b98;}.cls-2{fill:#de3449;}</style></defs><title>onye_logo</title><path class="cls-1" d="M441.83,188.17A76.33,76.33,0,0,1,414,217.71a77.13,77.13,0,0,1-78.89,0,77.13,77.13,0,0,1-28-29.7A86.3,86.3,0,0,1,297,146.21q0-23.25,10.21-42.11A77.56,77.56,0,0,1,335,74.4q17.61-10.85,39.6-10.84A74.21,74.21,0,0,1,414,74.4a76.08,76.08,0,0,1,27.81,29.7q10.05,18.86,10.06,42.11T441.83,188.17ZM431,110.07a64.24,64.24,0,0,0-23.1-25.3,64.21,64.21,0,0,0-66.47,0A64.87,64.87,0,0,0,318,110.07q-8.49,16-8.48,36.14A75.33,75.33,0,0,0,318,182a64.87,64.87,0,0,0,23.42,25.3,64.69,64.69,0,0,0,66.47.16A62.92,62.92,0,0,0,431,182.2a77.52,77.52,0,0,0,8.33-36Q439.32,126.11,431,110.07Z"/><path class="cls-1" d="M587.66,80.06q14.13,16.5,14.14,42.9v96.17a6.44,6.44,0,0,1-6.29,6.28,5.9,5.9,0,0,1-4.55-1.88,6.27,6.27,0,0,1-1.73-4.4V124.21q0-21.36-11.16-35T544.28,75.5a60.72,60.72,0,0,0-27.18,6.6A60,60,0,0,0,495.26,100q-8.49,11.33-8.49,24.2v94.92a6.44,6.44,0,0,1-6.29,6.28,5.9,5.9,0,0,1-4.55-1.88,6.27,6.27,0,0,1-1.73-4.4V74.87a6.44,6.44,0,0,1,6.28-6.29A5.88,5.88,0,0,1,485,70.47a6.33,6.33,0,0,1,1.73,4.4V95.93q9.11-14.15,25.61-23.26t33.16-9.11Q573.52,63.56,587.66,80.06Z"/><path class="cls-1" d="M751.55,65.44a6.33,6.33,0,0,1,1.73,4.4V210q0,23.58-9.58,41.33a67.82,67.82,0,0,1-26.41,27.34q-16.81,9.58-38.18,9.59a91.32,91.32,0,0,1-25.3-3.3,67.35,67.35,0,0,1-19.33-8.64q-5.65-3.78-3.46-8.49,2.21-3.76,5.35-3.77a4.61,4.61,0,0,1,2.83.94,87.2,87.2,0,0,0,18.07,8.33A68.65,68.65,0,0,0,679.74,277q17.91,0,31.74-8.49A57.73,57.73,0,0,0,733,244.74q7.69-15.24,7.7-34.73V195.87q-7.23,14.15-23.1,23.41a64.29,64.29,0,0,1-32.84,9.28q-28.29,0-42.12-16.19T628.82,167.9V69.84a6.33,6.33,0,0,1,1.73-4.4,6.47,6.47,0,0,1,9.12,0,6.33,6.33,0,0,1,1.73,4.4V167.9q0,48.72,43.37,48.71a55.06,55.06,0,0,0,26.55-7.07,62.35,62.35,0,0,0,21.22-18.38q8.16-11.32,8.17-23.26V69.84a6.29,6.29,0,0,1,1.73-4.4,6.46,6.46,0,0,1,9.11,0Z"/><path class="cls-1" d="M916.08,189.43a5.67,5.67,0,0,1,1.58,3.93,5.91,5.91,0,0,1-1.26,3.77,83.93,83.93,0,0,1-25.77,22.63,65.52,65.52,0,0,1-33,8.8q-23.58,0-41.8-10.06a71.14,71.14,0,0,1-28.45-28.6q-10.21-18.54-10.21-43.06,0-25.14,9.9-44.16t26.24-29.07a65.45,65.45,0,0,1,34.89-10,75.28,75.28,0,0,1,34.41,8,64.87,64.87,0,0,1,25.93,24q10.05,16,10.69,39.6a6.55,6.55,0,0,1-1.89,4.56,5.82,5.82,0,0,1-4.4,2H789.43v4.09a80.55,80.55,0,0,0,7.85,35.67,60.32,60.32,0,0,0,23.26,25.61q15.39,9.44,37.09,9.43a58,58,0,0,0,28.44-7.38,58.63,58.63,0,0,0,20.9-18.7,6.56,6.56,0,0,1,5.34-2.83A4.93,4.93,0,0,1,916.08,189.43ZM824.47,82.26a62.53,62.53,0,0,0-21.37,18.22q-9.27,12.1-12.42,29.39H906.34V127q-1.58-16-10.21-27.5A56.56,56.56,0,0,0,874.75,82.1a61.78,61.78,0,0,0-26.55-6A52.19,52.19,0,0,0,824.47,82.26Z"/><circle class="cls-2" cx="156.81" cy="146.22" r="22.21"/><circle class="cls-1" cx="156.81" cy="84.54" r="22.21"/><circle class="cls-1" cx="218.72" cy="146.12" r="22.21"/><circle class="cls-1" cx="94.98" cy="146.12" r="22.21"/><circle class="cls-1" cx="156.81" cy="207.9" r="22.21"/></svg>